<svg width="87" height="20" viewBox="0 0 87 20" fill="none" xmlns="http://www.w3.org/2000/svg">
<path d="M8.768 15.688C10.608 15.688 12.112 14.96 13.28 13.504L15.68 15.976C13.776 18.12 11.528 19.192 8.936 19.192C6.36 19.192 4.232 18.376 2.552 16.744C0.888 15.112 0.0560001 13.056 0.0560001 10.576C0.0560001 8.08 0.904 6 2.6 4.336C4.312 2.672 6.4 1.84 8.864 1.84C11.616 1.84 13.92 2.888 15.776 4.984L13.448 7.624C12.264 6.152 10.792 5.416 9.032 5.416C7.624 5.416 6.416 5.88 5.408 6.808C4.416 7.72 3.92 8.96 3.92 10.528C3.92 12.08 4.392 13.328 5.336 14.272C6.28 15.216 7.424 15.688 8.768 15.688ZM25.0741 9.256C24.0021 9.256 23.2021 9.64 22.6741 10.408C22.1461 11.16 21.8821 12.16 21.8821 13.408V19H18.2821V6.088H21.8821V7.792C22.3461 7.264 22.9221 6.816 23.6101 6.448C24.3141 6.08 25.0261 5.888 25.7461 5.872L25.7701 9.256H25.0741ZM31.7493 19H28.1493V6.088H31.7493V19ZM28.4373 4.456C28.0373 4.04 27.8373 3.536 27.8373 2.944C27.8373 2.352 28.0373 1.856 28.4373 1.456C28.8533 1.04 29.3573 0.831999 29.9493 0.831999C30.5413 0.831999 31.0373 1.04 31.4373 1.456C31.8533 1.856 32.0613 2.352 32.0613 2.944C32.0613 3.536 31.8533 4.04 31.4373 4.456C31.0373 4.856 30.5413 5.056 29.9493 5.056C29.3573 5.056 28.8533 4.856 28.4373 4.456ZM41.3491 16C42.5491 16 43.6291 15.4 44.5891 14.2L46.7251 16.6C45.0611 18.328 43.2611 19.192 41.3251 19.192C39.3891 19.192 37.7491 18.584 36.4051 17.368C35.0771 16.136 34.4131 14.536 34.4131 12.568C34.4131 10.584 35.0851 8.976 36.4291 7.744C37.7891 6.496 39.3971 5.872 41.2531 5.872C42.1811 5.872 43.1171 6.064 44.0611 6.448C45.0211 6.832 45.8611 7.4 46.5811 8.152L44.7091 10.6C44.2931 10.104 43.7811 9.72 43.1731 9.448C42.5811 9.176 41.9891 9.04 41.3971 9.04C40.4531 9.04 39.6371 9.352 38.9491 9.976C38.2771 10.584 37.9411 11.44 37.9411 12.544C37.9411 13.632 38.2771 14.48 38.9491 15.088C39.6371 15.696 40.4371 16 41.3491 16ZM52.7259 19H49.1259V1.192H52.7259V10.336L56.7339 6.064H61.2699L56.3499 11.296L61.4619 19H57.1899L53.9019 14.056L52.7259 15.28V19ZM74.5833 17.128C73.1273 18.504 71.4153 19.192 69.4473 19.192C67.4953 19.192 65.8793 18.592 64.5993 17.392C63.3193 16.176 62.6793 14.552 62.6793 12.52C62.6793 10.488 63.3273 8.872 64.6233 7.672C65.9353 6.472 67.4793 5.872 69.2553 5.872C71.0313 5.872 72.5353 6.408 73.7673 7.48C75.0153 8.552 75.6393 10.024 75.6393 11.896V13.816H66.2313C66.3433 14.52 66.7113 15.096 67.3353 15.544C67.9593 15.992 68.6633 16.216 69.4473 16.216C70.7113 16.216 71.7513 15.792 72.5673 14.944L74.5833 17.128ZM71.9913 11.248C71.9113 10.48 71.6233 9.888 71.1273 9.472C70.6313 9.056 70.0233 8.848 69.3033 8.848C68.5993 8.848 67.9513 9.064 67.3593 9.496C66.7673 9.928 66.4233 10.512 66.3273 11.248H71.9913ZM82.3906 8.68V14.464C82.3906 14.96 82.5186 15.352 82.7746 15.64C83.0306 15.912 83.3346 16.048 83.6866 16.048C84.3586 16.048 84.9266 15.744 85.3906 15.136L86.7346 17.656C85.6146 18.68 84.4306 19.192 83.1826 19.192C81.9506 19.192 80.9026 18.784 80.0386 17.968C79.1906 17.152 78.7666 16.04 78.7666 14.632V8.68H77.2546V6.088H78.7666V2.224H82.3906V6.088H85.5106V8.68H82.3906Z" fill="#FE5000"/>
</svg>
