<svg width="248" height="244" viewBox="0 0 248 244" fill="none" xmlns="http://www.w3.org/2000/svg">
<circle cx="126" cy="122" r="122" fill="url(#paint0_linear)" fillOpacity="0.9"/>
<rect x="68" y="23" width="117" height="15" fill="#E64800"/>
<rect x="28" y="23" width="40" height="15" fill="#FE5000"/>
<rect x="185" y="23" width="40" height="15" fill="#FE5000"/>
<path d="M72.7783 88C35.7787 88 27.5234 55.4571 28.0208 39.1857V37H41.448V39.1857C41.448 69.4943 65.816 74.6429 78 73.4286V88H72.7783Z" fill="#FE5000"/>
<path d="M180.222 88C217.221 88 225.477 55.4571 224.979 39.1857V37H211.552V39.1857C211.552 69.4943 187.184 74.6429 175 73.4286V88H180.222Z" fill="#FE5000"/>
<rect x="115" y="117" width="23" height="33" fill="#E54800"/>
<path d="M68 38H185V81C185 103.091 167.091 121 145 121H108C85.9086 121 68 103.091 68 81V38Z" fill="#FE5000"/>
<path d="M97 153C97 151.343 98.3431 150 100 150H152C153.657 150 155 151.343 155 153V169H97V153Z" fill="#FE5000"/>
<path d="M78 172C78 170.343 79.3431 169 81 169H172C173.657 169 175 170.343 175 172V220H78V172Z" fill="url(#paint1_linear)"/>
<rect x="150" y="189" width="25" height="15" fill="#09242F"/>
<rect x="78" y="189" width="24" height="15" fill="#09242F"/>
<path d="M121.744 186.224H128.536V203H124.936V189.416H121.744V186.224Z" fill="white"/>
<circle cx="6" cy="103" r="6" fill="#173845"/>
<circle cx="43" cy="160" r="6" fill="#FE5000"/>
<circle cx="218.5" cy="109.5" r="6.5" fill="#FE5000" fillOpacity="0.4"/>
<ellipse cx="230.5" cy="176" rx="5.5" ry="6" fill="#305362"/>
<defs>
<linearGradient id="paint0_linear" x1="126" y1="0" x2="126" y2="244" gradientUnits="userSpaceOnUse">
<stop stop-color="#09242F"/>
<stop offset="0.833333" stop-color="#00151D"/>
</linearGradient>
<linearGradient id="paint1_linear" x1="126.5" y1="169" x2="126.5" y2="220" gradientUnits="userSpaceOnUse">
<stop stop-color="#305362" stop-opacity="0.76"/>
<stop offset="1" stop-color="#305362"/>
</linearGradient>
</defs>
</svg>
