<svg width="24" height="24" viewBox="0 0 24 24" fill="none" xmlns="http://www.w3.org/2000/svg">
<path d="M14.8437 12L23.4156 3.42588C24.1948 2.64641 24.1948 1.36406 23.4156 0.584599C22.6363 -0.194866 21.3543 -0.194866 20.575 0.584599L12.0031 9.15872L3.43127 0.584599C2.652 -0.194866 1.36999 -0.194866 0.59073 0.584599C0.201099 0.974332 0 1.48979 0 2.00524C0 2.52069 0.201099 3.03615 0.59073 3.42588L9.16261 12L0.59073 20.5741C0.201099 20.9639 0 21.4793 0 21.9948C0 22.5102 0.201099 23.0257 0.59073 23.4154C1.36999 24.1949 2.652 24.1949 3.43127 23.4154L12.0031 14.8413L20.575 23.4154C21.3543 24.1949 22.6363 24.1949 23.4156 23.4154C24.1948 22.6359 24.1948 21.3536 23.4156 20.5741L14.8437 12Z" fill="#FE5000"/>
</svg>
