<svg width="18" height="18" viewBox="0 0 18 18" fill="none" xmlns="http://www.w3.org/2000/svg">
<path d="M15.9615 7.76922H10.2307V2.03845C10.2307 1.36152 9.67685 0.807678 8.99992 0.807678C8.323 0.807678 7.76916 1.36152 7.76916 2.03845V7.76922H2.03839C1.36146 7.76922 0.807617 8.23075 0.807617 8.99999C0.807617 9.76922 1.38454 10.2308 2.03839 10.2308H7.76916V15.9615C7.76916 16.6923 8.30762 17.1923 8.99992 17.1923C9.69223 17.1923 10.2307 16.6384 10.2307 15.9615V10.2308H15.9615C16.6384 10.2308 17.1922 9.67691 17.1922 8.99999C17.1922 8.32306 16.6384 7.76922 15.9615 7.76922Z" fill="#FE5000"/>
</svg>
