<svg width="32" height="32" viewBox="0 0 32 32" fill="none" xmlns="http://www.w3.org/2000/svg">
<path d="M16 2.15385C19.7 2.15385 23.1769 3.59231 25.7923 6.20769C28.4077 8.82308 29.8462 12.3 29.8462 16C29.8462 19.7 28.4077 23.1769 25.7923 25.7923C23.1769 28.4077 19.7 29.8462 16 29.8462C12.3 29.8462 8.82308 28.4077 6.20769 25.7923C3.59231 23.1769 2.15385 19.7 2.15385 16C2.15385 12.3 3.59231 8.82308 6.20769 6.20769C8.82308 3.59231 12.3 2.15385 16 2.15385ZM16 0C7.16154 0 0 7.16154 0 16C0 24.8385 7.16154 32 16 32C24.8385 32 32 24.8385 32 16C32 7.16154 24.8385 0 16 0Z" fill="#FE5000"/>
</svg>
